<?xml version="1.0" encoding="utf-8"?>
<!-- Generator: Adobe Illustrator 21.0.0, SVG Export Plug-In . SVG Version: 6.00 Build 0)  -->
<svg version="1.1" id="Calque_1" xmlns="http://www.w3.org/2000/svg" xmlns:xlink="http://www.w3.org/1999/xlink" x="0px" y="0px"
	 viewBox="0 0 361.4 361.4" style="enable-background:new 0 0 361.4 361.4;" xml:space="preserve">
<style type="text/css">
	.st0{fill:#FFFFFF;}
</style>
<g>
	<circle cx="180.7" cy="180.7" r="180.7"/>
	<g>
		<path class="st0" d="M46.5,155.6c0-3,2.3-6.2,6.1-6.2h20.6c11.6,0,22.1,7.8,22.1,22.7c0,14.1-10.5,22-22.1,22H58.3V206
			c0,3.9-2.5,6.2-5.7,6.2c-3,0-6.1-2.2-6.1-6.2V155.6z M58.3,160.7V183h14.9c6,0,10.7-5.3,10.7-10.8c0-6.3-4.7-11.4-10.7-11.4H58.3z
			"/>
		<path class="st0" d="M105.4,155.6c0-7.3,11.8-7.6,11.8,0v51c0,7.4-11.8,7.6-11.8,0V155.6z"/>
		<path class="st0" d="M153.4,171.7l15.6-19.5c4.6-6.1,13.7,1.7,8.6,7.5c-5.4,6.3-11,13.2-16.4,20.3l18.2,22.7
			c4.9,6.7-4.9,13.1-9.7,6.5l-16.4-21.1L137,209.7c-4.6,6.5-14.7-0.8-9.6-6.9l18-22.8c-5.6-7.1-11.1-13.9-16.5-20.3
			c-5.6-6.7,4.8-13.6,8.9-7.3L153.4,171.7z"/>
		<path class="st0" d="M188.8,155.6c0-7.3,11.8-7.6,11.8,0v51c0,7.4-11.8,7.6-11.8,0V155.6z"/>
		<path class="st0" d="M219.2,212.1c-3.1,0-5.5-2.4-5.5-5.5v-50.8c0-3.2,2.4-5.5,5.5-5.5h32.1c8.2,0,8,11.6,0,11.6h-25.7v13.4h22.5
			c8,0,8,11.7,0,11.7h-22.5v13.4h27.3c8.1,0,8.8,11.7,0,11.7H219.2z"/>
		<path class="st0" d="M267.7,163.7c2.1-17.3,28.2-20.5,40.6-11c6.1,4.9-0.4,12.7-5.7,8.8c-6.6-4.2-21.6-6.2-23.5,3.1
			c-2.4,14.7,36.5,6.3,35.8,30c-0.6,22.7-33.5,23.2-45.9,13.1c-3-2.4-2.9-6.3-1.3-8.8c2.3-2.3,4.9-3.1,8-0.6
			c7.3,5,26.2,8.8,27.5-3.9C302.1,181.1,264.9,189.1,267.7,163.7z"/>
	</g>
</g>
</svg>
